<svg width="33" height="34" viewBox="0 0 33 34" fill="none" xmlns="http://www.w3.org/2000/svg">
<path d="M24.6991 20.575V13.3205H26.3794V19.101H29.3219V20.5723H24.6991V20.575ZM11.2461 16.054L15.3436 12.9025C15.73 13.216 16.1136 13.5322 16.5 13.8471L12.6129 16.7896L13.453 17.5252L17.3401 14.4783C17.7265 14.7918 18.1101 15.108 18.4965 15.4242C17.207 16.4478 15.9112 17.4635 14.6094 18.4712L15.4481 19.2083L19.3394 16.0526L19.338 13.3219H21.0196V19.1024H24.0666V20.5736H19.4439V17.8415C18.0758 18.8906 16.7118 19.9439 15.345 20.993L11.2461 17.8415C11.0481 18.8439 10.3483 19.7115 9.44213 20.1707C9.04922 20.3725 8.62291 20.501 8.184 20.5502C7.93238 20.5805 7.67938 20.5736 7.42637 20.5736H4.8345V13.3219H7.82375C8.60559 13.3298 9.36223 13.5994 9.97287 14.0877C10.5971 14.5828 11.0426 15.2868 11.2475 16.054M6.413 14.7931V19.2069L7.72338 19.2055C7.99885 19.1965 8.26904 19.1275 8.51508 19.0033C8.76113 18.8791 8.97709 18.7027 9.14787 18.4864C9.43654 18.1241 9.61385 17.6859 9.65827 17.2248C9.70269 16.7637 9.61232 16.2997 9.39812 15.889C9.26295 15.6275 9.07316 15.3982 8.84163 15.2165C8.61009 15.0348 8.34221 14.9049 8.05613 14.8357C7.82788 14.7807 7.59138 14.7945 7.359 14.7917H6.413V14.7931ZM16.2525 0.5H16.7159C19.3075 0.533841 21.8542 1.18078 24.1478 2.38788C26.386 3.56578 28.3262 5.23846 29.821 7.27875C31.8402 10.0292 32.9514 13.3408 33 16.7525V17.2475C32.9483 21.3558 31.3611 25.296 28.5505 28.2929C27.0357 29.9108 25.2096 31.206 23.1818 32.1008C21.1541 32.9956 18.9665 33.4715 16.7502 33.5H16.2539C14.3035 33.4706 12.3738 33.0953 10.5545 32.3918C8.33823 31.5291 6.33383 30.1991 4.67775 28.4923C2.90543 26.6699 1.57592 24.4644 0.792 22.0462C0.292654 20.495 0.0257602 18.8783 0 17.2489L0 16.7525C0.0538499 13.6195 1.00437 10.5675 2.739 7.958C4.35958 5.51294 6.59246 3.53511 9.21525 2.2215C11.4025 1.12794 13.8074 0.539626 16.2525 0.5ZM16.0421 2.19125C12.8171 2.28325 9.71134 3.43042 7.20087 5.45687C5.14764 7.10978 3.57231 9.2803 2.63725 11.7448C1.27797 15.3606 1.37309 19.3626 2.90263 22.9097C3.95707 25.3344 5.64041 27.4331 7.77838 28.9886C9.72041 30.4048 11.9799 31.3235 14.3591 31.6644C16.3611 31.9518 18.4223 31.8349 20.3761 31.3069C23.0506 30.5847 25.4684 29.1259 27.3542 27.0966C29.2415 25.0706 30.5212 22.555 31.0475 19.8366C31.4581 17.7038 31.4008 15.5074 30.8797 13.3989C30.2728 10.9682 29.059 8.73126 27.3521 6.89739C25.6452 5.06351 23.501 3.69266 21.12 2.91313C19.4822 2.37926 17.7638 2.13498 16.0421 2.19125Z" fill="black"/>
</svg>
