<svg width="24" height="24" viewBox="0 0 24 24" fill="none" xmlns="http://www.w3.org/2000/svg">
<g clip-path="url(#clip0_1_466)">
<path d="M1.5 3.75C1.08579 3.75 0.75 4.08579 0.75 4.5C0.75 4.91421 1.08579 5.25 1.5 5.25V3.75ZM22.5 5.25C22.9142 5.25 23.25 4.91421 23.25 4.5C23.25 4.08579 22.9142 3.75 22.5 3.75V5.25ZM1.5 5.25H22.5V3.75H1.5V5.25Z" fill="#E77FB3"/>
<path d="M7.5 4.5C7.5 4.91421 7.83579 5.25 8.25 5.25C8.66421 5.25 9 4.91421 9 4.5H7.5ZM15 4.5C15 4.91421 15.3358 5.25 15.75 5.25C16.1642 5.25 16.5 4.91421 16.5 4.5H15ZM14.25 0.75H9.75V2.25H14.25V0.75ZM9.75 0.75C9.15326 0.75 8.58097 0.987053 8.15901 1.40901L9.21967 2.46967C9.36032 2.32902 9.55109 2.25 9.75 2.25V0.75ZM8.15901 1.40901C7.73705 1.83097 7.5 2.40326 7.5 3H9C9 2.80109 9.07902 2.61032 9.21967 2.46967L8.15901 1.40901ZM7.5 3V4.5H9V3H7.5ZM16.5 4.5V3H15V4.5H16.5ZM16.5 3C16.5 2.40326 16.2629 1.83097 15.841 1.40901L14.7803 2.46967C14.921 2.61032 15 2.80109 15 3H16.5ZM15.841 1.40901C15.419 0.987053 14.8467 0.75 14.25 0.75V2.25C14.4489 2.25 14.6397 2.32902 14.7803 2.46967L15.841 1.40901Z" fill="#E77FB3"/>
<path d="M9 17.25C9 17.6642 9.33579 18 9.75 18C10.1642 18 10.5 17.6642 10.5 17.25H9ZM10.5 9.75C10.5 9.33579 10.1642 9 9.75 9C9.33579 9 9 9.33579 9 9.75H10.5ZM10.5 17.25V9.75H9V17.25H10.5Z" fill="#E77FB3"/>
<path d="M13.5 17.25C13.5 17.6642 13.8358 18 14.25 18C14.6642 18 15 17.6642 15 17.25H13.5ZM15 9.75C15 9.33579 14.6642 9 14.25 9C13.8358 9 13.5 9.33579 13.5 9.75H15ZM15 17.25V9.75H13.5V17.25H15Z" fill="#E77FB3"/>
<path d="M4.49745 4.43773C4.46303 4.02494 4.10051 3.71822 3.68773 3.75263C3.27494 3.78705 2.96822 4.14957 3.00263 4.56235L4.49745 4.43773ZM20.9974 4.56231C21.0318 4.14953 20.7251 3.78702 20.3123 3.75263C19.8995 3.71824 19.537 4.02499 19.5026 4.43777L20.9974 4.56231ZM18.1176 21.0617C18.102 21.2492 18.0165 21.4244 17.878 21.5518L18.8939 22.6555C19.3093 22.2732 19.5658 21.7486 19.6124 21.186L18.1176 21.0617ZM17.878 21.5518C17.7396 21.6793 17.5583 21.75 17.3701 21.75L17.3699 23.25C17.9345 23.25 18.4785 23.0379 18.8939 22.6555L17.878 21.5518ZM17.3701 21.75H6.63104V23.25H17.3699L17.3701 21.75ZM6.63104 21.75C6.44285 21.75 6.26146 21.6793 6.12299 21.5518L5.10717 22.6555C5.52257 23.0379 6.06646 23.25 6.63104 23.25V21.75ZM6.12299 21.5518C5.98453 21.4244 5.89903 21.2495 5.88347 21.062L4.38861 21.186C4.43528 21.7486 4.69176 22.2732 5.10717 22.6555L6.12299 21.5518ZM5.88347 21.062L4.49745 4.43773L3.00263 4.56235L4.38861 21.186L5.88347 21.062ZM19.5026 4.43777L18.1176 21.0617L19.6124 21.186L20.9974 4.56231L19.5026 4.43777Z" fill="#E77FB3"/>
</g>
<defs>
<clipPath id="clip0_1_466">
<rect width="24" height="24" fill="white"/>
</clipPath>
</defs>
</svg>
