<svg width="14" height="11" viewBox="0 0 14 11" fill="none" xmlns="http://www.w3.org/2000/svg">
<g clip-path="url(#clip0_1_113)">
<path d="M2.21053 0H11.7895C12.3757 0 12.938 0.231785 13.3526 0.644365C13.7671 1.05695 14 1.61652 14 2.2V8.8C14 9.38348 13.7671 9.94306 13.3526 10.3556C12.938 10.7682 12.3757 11 11.7895 11H2.21053C1.62426 11 1.062 10.7682 0.647448 10.3556C0.232894 9.94306 0 9.38348 0 8.8V2.2C0 1.61652 0.232894 1.05695 0.647448 0.644365C1.062 0.231785 1.62426 0 2.21053 0ZM2.21053 0.733333C1.84211 0.733333 1.51789 0.858 1.26737 1.078L7 4.76667L12.7326 1.078C12.4821 0.858 12.1579 0.733333 11.7895 0.733333H2.21053ZM7 5.654L0.832632 1.672C0.773684 1.83333 0.736842 2.01667 0.736842 2.2V8.8C0.736842 9.18898 0.892105 9.56204 1.16847 9.83709C1.44484 10.1121 1.81968 10.2667 2.21053 10.2667H11.7895C12.1803 10.2667 12.5552 10.1121 12.8315 9.83709C13.1079 9.56204 13.2632 9.18898 13.2632 8.8V2.2C13.2632 2.01667 13.2263 1.83333 13.1674 1.672L7 5.654Z" fill="#E77FB3"/>
</g>
<defs>
<clipPath id="clip0_1_113">
<rect width="14" height="11" fill="white"/>
</clipPath>
</defs>
</svg>
