<svg width="29" height="24" viewBox="0 0 29 24" fill="none" xmlns="http://www.w3.org/2000/svg">
<path d="M20 18.375H26.875M23.4375 14.9375V21.8125M14.5 21.125H6.525C4.98486 21.125 4.21478 21.125 3.62653 20.8252C3.10907 20.5617 2.68838 20.1409 2.42474 19.6235C2.125 19.0353 2.125 18.2651 2.125 16.725V6.275C2.125 4.73486 2.125 3.96478 2.42474 3.37653C2.68838 2.85907 3.10907 2.43838 3.62653 2.17474C4.21478 1.875 4.98486 1.875 6.525 1.875H22.475C24.0151 1.875 24.7853 1.875 25.3735 2.17474C25.8909 2.43838 26.3117 2.85907 26.5752 3.37653C26.875 3.96478 26.875 4.73486 26.875 6.275V10.125M26.3342 6.36065L19.3811 10.9961C17.617 12.1721 16.7349 12.7602 15.7815 12.9887C14.9389 13.1906 14.0606 13.1906 13.2181 12.9887C12.2647 12.7602 11.3826 12.1721 9.61841 10.9961L2.32776 6.13562" stroke="black" stroke-width="2.75" stroke-linecap="round" stroke-linejoin="round"/>
</svg>
