<svg width="25" height="26" viewBox="0 0 25 26" fill="none" xmlns="http://www.w3.org/2000/svg">
<path d="M12.498 0.631445C12.3111 0.631445 12.1242 0.631445 11.9437 0.644336L9.4107 7.60527H11.615C12.9234 7.60527 13.6324 8.61074 13.1812 9.84824L10.0617 18.4205H7.43843L10.79 9.22949H8.82417L5.47261 18.4205H2.85581L6.78745 7.59238L9.16577 1.08262C6.52425 1.8206 4.20272 3.4152 2.56591 5.6159C0.929099 7.81661 0.0697499 10.4987 0.122867 13.2409C0.175984 15.9831 1.13856 18.6299 2.85937 20.7655C4.58018 22.9012 6.96171 24.4047 9.62984 25.0398L11.9308 18.7234L15.9785 7.59238H20.8125C22.1209 7.59238 22.8298 8.6043 22.3787 9.8418L19.6394 17.3764C19.5143 17.6739 19.3074 17.9299 19.0428 18.1147C18.7781 18.2995 18.4665 18.4055 18.1441 18.4205H14.6636L12.1371 25.3686L12.5044 25.375C15.7865 25.375 18.9341 24.0712 21.2549 21.7504C23.5757 19.4297 24.8794 16.2821 24.8794 13C24.8794 9.71795 23.5757 6.57032 21.2549 4.24955C18.9341 1.92879 15.7865 0.625 12.5044 0.625L12.498 0.631445ZM18.0152 9.22305L15.2566 16.7898H17.2289L19.9875 9.22305H18.0152Z" fill="#0096D6"/>
</svg>
