<svg width="33" height="34" viewBox="0 0 33 34" fill="none" xmlns="http://www.w3.org/2000/svg">
<path d="M16.5 0.5C7.38633 0.5 0 7.88633 0 17C0 26.1137 7.38633 33.5 16.5 33.5C25.6137 33.5 33 26.1137 33 17C33 7.88633 25.6137 0.5 16.5 0.5ZM26.7996 27.2932C25.459 28.6338 23.9057 29.6844 22.1719 30.4127C20.3801 31.1732 18.4723 31.5535 16.5 31.5535C14.5342 31.5535 12.6264 31.1668 10.8281 30.4127C9.09434 29.6779 7.53457 28.6273 6.20039 27.2932C4.85977 25.9525 3.80918 24.3992 3.08086 22.6654C2.32031 20.8736 1.93359 18.9658 1.93359 17C1.93359 15.0342 2.32031 13.1264 3.07441 11.3281C3.80918 9.59434 4.85977 8.03457 6.19395 6.70039C7.54102 5.35977 9.09434 4.30918 10.8281 3.57441C12.6264 2.82031 14.5342 2.43359 16.5 2.43359C18.4658 2.43359 20.3736 2.82031 22.1719 3.57441C23.9057 4.30918 25.4654 5.35977 26.7996 6.69395C28.1402 8.03457 29.1908 9.58789 29.9191 11.3217C30.6797 13.1135 31.06 15.0213 31.06 16.9936C31.06 18.9594 30.6732 20.8672 29.9191 22.6654C29.1844 24.3992 28.1338 25.959 26.7996 27.2932Z" fill="black"/>
<path d="M23.1129 13.8353C22.2621 12.7719 21.0697 12.1595 19.9418 12.1595C18.4529 12.1595 17.8213 12.8685 16.79 12.8685C15.7201 12.8685 14.9145 12.1595 13.6254 12.1595C12.3557 12.1595 11.0086 12.9265 10.1578 14.2414C8.95254 16.0912 9.15879 19.5652 11.1053 22.5301C11.8014 23.5871 12.7295 24.7795 13.9477 24.7924C15.0305 24.8052 15.3398 24.1027 16.8029 24.0963C18.266 24.0898 18.5432 24.8052 19.626 24.7924C20.8441 24.7795 21.8238 23.4582 22.5199 22.4011C23.0162 21.647 23.2031 21.2603 23.5898 20.4031C20.7732 19.3396 20.3221 15.3629 23.1129 13.8353Z" fill="black"/>
<path d="M18.8074 10.9801C19.3488 10.284 19.7613 9.3043 19.6131 8.29883C18.7301 8.35684 17.6924 8.92402 17.093 9.65879C16.5451 10.3227 16.0939 11.3088 16.268 12.2691C17.2283 12.3014 18.2273 11.7213 18.8074 10.9801Z" fill="black"/>
</svg>
