<svg width="45" height="14" viewBox="0 0 45 14" fill="none" xmlns="http://www.w3.org/2000/svg">
<path d="M45 11.4599V13.0576H44.8641V11.8263H44.8555L44.6302 13.0576H44.5132L44.2896 11.8263V13.0576H44.152V11.4599H44.3567L44.582 12.7115L44.7953 11.4599H45ZM44.0643 11.4599V11.6905H43.8012V13.0574H43.6653V11.6905H43.4022V11.4599H44.0643ZM40.6623 9.0752C40.8669 7.7692 40.8669 6.99928 40.6709 6.49718C40.5246 6.15121 40.3113 5.97822 39.988 5.97822C39.2674 5.97822 38.8683 6.78555 38.5466 8.80712C38.3402 10.1334 38.3402 10.9033 38.5363 11.4022C38.6722 11.7311 38.8974 11.9042 39.2191 11.9042C39.9295 11.9042 40.3405 11.1139 40.6623 9.0752ZM43.4796 6.15121C43.7616 6.84666 43.8218 7.72863 43.655 8.80729C43.1872 11.7889 41.4225 13.4985 38.808 13.4985C37.248 13.4985 36.1868 12.9015 35.7172 11.7481C35.4352 11.0563 35.387 10.1539 35.5521 9.0752C36.0199 6.0936 37.7846 4.38402 40.399 4.38402C41.9487 4.38402 43.0221 4.99799 43.4796 6.15121ZM33.7289 4.67222H36.4981C36.3313 5.11329 33.3195 13.0948 33.2697 13.2306H29.0196C28.999 12.9795 28.4916 4.98096 28.4726 4.67222H31.0768C31.0956 4.92327 31.4568 10.6729 31.4568 10.6729C31.4568 10.6729 33.6893 4.7876 33.7289 4.67222ZM25.1376 9.0752C25.3422 7.7692 25.3526 6.99928 25.1478 6.49718C25.0103 6.15121 24.7867 5.97822 24.4753 5.97822C23.753 5.97822 23.3436 6.78555 23.0322 8.80712C22.8173 10.1334 22.8173 10.9033 23.0219 11.4022C23.1578 11.7311 23.3831 11.9042 23.6944 11.9042C24.4169 11.9042 24.8262 11.1139 25.1376 9.0752ZM27.9652 6.15121C28.249 6.84666 28.3075 7.72863 28.1321 8.80729C27.6643 11.7889 25.8978 13.4985 23.2955 13.4985C21.7354 13.4985 20.6725 12.9015 20.2029 11.7481C19.9209 11.0563 19.8624 10.1539 20.0275 9.0752C20.5057 6.0936 22.2704 4.38402 24.8744 4.38402C26.4344 4.38402 27.4974 4.99799 27.9652 6.15121ZM19.8142 5.73076C19.9208 5.99876 19.9793 6.26659 19.9501 6.6533L18.8682 13.2476H16.001L17.0159 7.09445C17.0537 6.82646 17.0055 6.59578 16.9281 6.42279C16.7905 6.09377 16.4981 5.88346 15.4937 6.01905C15.4937 6.01905 14.3052 13.1527 14.2845 13.2476H11.419C11.4466 13.0949 12.764 5.15411 12.7829 5.07605C13.7789 4.73008 15.0946 4.40439 16.4603 4.40439C18.3126 4.40448 19.4427 4.84546 19.8142 5.73076ZM9.35153 7.53878C9.41003 6.99944 9.32232 6.59578 9.22419 6.3651C9.11759 6.09377 8.88192 5.74771 8.39522 5.74771C7.70379 5.74771 7.18605 6.40242 7.01058 7.49803L6.67001 10.0184L9.35153 7.53878ZM11.7595 7.51832C11.7595 7.92198 11.7114 8.26804 11.6718 8.42066C11.5841 8.4614 6.58237 10.6527 6.58237 10.6527C6.58237 10.6527 6.53242 11.1344 6.71822 11.3853C6.96249 11.7314 7.22563 11.8264 7.67284 11.8637C8.77537 11.9587 10.2682 10.69 10.6863 10.327C10.6192 10.7476 10.1892 12.5964 10.1703 12.6913C9.98446 12.827 8.95076 13.4783 6.92286 13.4986C6.15227 13.519 4.77804 13.3257 4.21217 11.9213C3.9301 11.2294 3.88028 10.249 4.07459 9.01776C4.53382 6.07674 6.2504 4.38419 8.765 4.38419C10.1703 4.38419 11.087 4.90315 11.5067 5.92078C11.6718 6.34473 11.7595 6.88406 11.7595 7.51832ZM1.99856 0.5H4.83659C4.77813 0.863005 2.86724 13.0168 2.83625 13.2306H0C0.0584201 12.8642 1.96931 0.710389 1.99856 0.5Z" fill="#005E9D"/>
</svg>
