<svg width="36" height="26" viewBox="0 0 36 26" fill="none" xmlns="http://www.w3.org/2000/svg">
<path d="M34.4941 21.6034H33.6545V3.28786C33.6545 2.00139 32.5775 0.9552 31.2538 0.9552H4.17201C2.84825 0.9552 1.77129 2.00139 1.77129 3.28786V21.6034H0.931726C0.418052 21.6034 0 22.0095 0 22.5085V24.1397C0 24.6387 0.418052 25.0448 0.931726 25.0448H34.4941C35.0078 25.0448 35.4259 24.6387 35.4259 24.1397V22.5085C35.4258 22.0095 35.0077 21.6034 34.4941 21.6034ZM3.54258 3.24942C3.54258 2.93284 3.80647 2.67588 4.13299 2.67588H31.2927C31.6192 2.67588 31.8831 2.93284 31.8831 3.24942V20.4562C31.8831 20.7728 31.6192 21.0298 31.2927 21.0298H4.13299C3.80647 21.0298 3.54258 20.7728 3.54258 20.4562V3.24942ZM34.2449 23.8976H1.18088V22.7504H1.77129H14.4709C14.7448 23.1043 15.1782 23.324 15.6464 23.324H20.3698C20.838 23.324 21.2714 23.1043 21.5454 22.7504H33.6545H34.2449V23.8976Z" fill="#E77FB3"/>
<path d="M30.7023 3.823H4.72339V19.8827H30.7023V3.823H30.7023ZM21.8458 5.54368H24.2075C24.534 5.54368 24.7979 5.80064 24.7979 6.11722C24.7979 6.43379 24.534 6.69075 24.2075 6.69075H21.8458C21.5193 6.69075 21.2554 6.43379 21.2554 6.11722C21.2554 5.80064 21.5193 5.54368 21.8458 5.54368ZM21.8458 9.55857H23.0267C23.3532 9.55857 23.6171 9.81553 23.6171 10.1321C23.6171 10.4487 23.3532 10.7056 23.0267 10.7056H21.8458C21.5193 10.7056 21.2554 10.4487 21.2554 10.1321C21.2554 9.81553 21.5193 9.55857 21.8458 9.55857ZM20.0439 10.3134L17.6822 17.1961C17.6025 17.4307 17.3769 17.5884 17.1224 17.5884H8.85637C8.60189 17.5884 8.37633 17.4307 8.29662 17.1961L5.93492 10.3134C5.8741 10.1384 5.90483 9.94633 6.01525 9.79718C6.12686 9.64689 6.30516 9.55857 6.49468 9.55857H9.05772L10.6755 5.89124C10.8042 5.59987 11.1525 5.4651 11.4507 5.59012C11.75 5.7146 11.8894 6.05182 11.7607 6.34319L10.3419 9.55857H15.6369L14.2181 6.34319C14.0894 6.05182 14.2287 5.7146 14.528 5.59012C14.8256 5.4651 15.1746 5.59987 15.3032 5.89124L16.921 9.55857H19.4841C19.6736 9.55857 19.8519 9.64689 19.9635 9.79718C20.074 9.94633 20.1047 10.1384 20.0439 10.3134ZM23.6171 17.5884H21.8458C21.5193 17.5884 21.2554 17.3315 21.2554 17.0149C21.2554 16.6983 21.5193 16.4414 21.8458 16.4414H23.6171C23.9436 16.4414 24.2075 16.6983 24.2075 17.0149C24.2075 17.3315 23.9436 17.5884 23.6171 17.5884ZM24.798 14.1471H21.8458C21.5193 14.1471 21.2554 13.8901 21.2554 13.5735C21.2554 13.257 21.5193 13 21.8458 13H24.798C25.1245 13 25.3884 13.257 25.3884 13.5735C25.3884 13.8901 25.1245 14.1471 24.798 14.1471ZM28.931 17.5884H25.9788C25.6523 17.5884 25.3884 17.3315 25.3884 17.0149C25.3884 16.6983 25.6523 16.4414 25.9788 16.4414H28.931C29.2575 16.4414 29.5214 16.6983 29.5214 17.0149C29.5214 17.3315 29.2575 17.5884 28.931 17.5884ZM28.931 14.1471H27.1597C26.8332 14.1471 26.5693 13.8901 26.5693 13.5735C26.5693 13.257 26.8332 13 27.1597 13H28.931C29.2575 13 29.5214 13.257 29.5214 13.5735C29.5214 13.8901 29.2575 14.1471 28.931 14.1471ZM28.931 10.7057H25.3884C25.0619 10.7057 24.798 10.4488 24.798 10.1322C24.798 9.8156 25.0619 9.55864 25.3884 9.55864H28.931C29.2575 9.55864 29.5214 9.8156 29.5214 10.1322C29.5214 10.4488 29.2575 10.7057 28.931 10.7057ZM28.931 6.69075H26.5693C26.2428 6.69075 25.9789 6.43379 25.9789 6.11722C25.9789 5.80064 26.2428 5.54368 26.5693 5.54368H28.931C29.2575 5.54368 29.5214 5.80064 29.5214 6.11722C29.5214 6.43379 29.2575 6.69075 28.931 6.69075Z" fill="black"/>
<path d="M16.532 10.7061H16.5302H9.44861H9.44681H9.44564H7.31421L9.28214 16.4416H16.6967L18.6646 10.7061H16.5331H16.532Z" fill="black"/>
</svg>
