<svg width="51" height="34" viewBox="0 0 51 34" fill="none" xmlns="http://www.w3.org/2000/svg">
<path d="M49.1849 29.1428H47.9999V3.29232C47.9999 1.47659 46.4799 0 44.6115 0H6.38837C4.52001 0 3 1.47659 3 3.29232V29.1428H1.81504C1.09004 29.1428 0.5 29.716 0.5 30.4202V32.7225C0.5 33.4268 1.09004 34 1.81504 34H49.185C49.91 34 50.5 33.4268 50.5 32.7225V30.4202C50.4999 29.716 49.9099 29.1428 49.1849 29.1428ZM5.49999 3.23805C5.49999 2.79124 5.87245 2.42856 6.33329 2.42856H44.6665C45.1274 2.42856 45.4998 2.79124 45.4998 3.23805V27.5237C45.4998 27.9705 45.1274 28.3332 44.6665 28.3332H6.33329C5.87245 28.3332 5.49999 27.9705 5.49999 27.5237V3.23805ZM48.8332 32.3808H2.1667V30.7618H3H20.9242C21.3108 31.2612 21.9225 31.5712 22.5834 31.5712H29.2499C29.9108 31.5712 30.5224 31.2612 30.9091 30.7618H47.9999H48.8332V32.3808Z" fill="#E77FB3"/>
<path d="M43.8333 4.04761H7.16675V26.7142H43.8334V4.04761H43.8333ZM31.3333 6.47617H34.6666C35.1274 6.47617 35.4999 6.83884 35.4999 7.28566C35.4999 7.73248 35.1274 8.09515 34.6666 8.09515H31.3333C30.8725 8.09515 30.5 7.73248 30.5 7.28566C30.5 6.83884 30.8725 6.47617 31.3333 6.47617ZM31.3333 12.1428H33C33.4608 12.1428 33.8333 12.5055 33.8333 12.9523C33.8333 13.3991 33.4608 13.7618 33 13.7618H31.3333C30.8725 13.7618 30.5 13.3991 30.5 12.9523C30.5 12.5055 30.8725 12.1428 31.3333 12.1428ZM28.79 13.2081L25.4568 22.9224C25.3443 23.2535 25.0259 23.4761 24.6667 23.4761H13C12.6409 23.4761 12.3225 23.2535 12.21 22.9224L8.87671 13.2081C8.79087 12.9612 8.83423 12.6901 8.99009 12.4796C9.1476 12.2674 9.39926 12.1428 9.66674 12.1428H13.2842L15.5675 6.96672C15.7492 6.55548 16.2409 6.36527 16.6617 6.54172C17.0841 6.71742 17.2808 7.19336 17.0992 7.6046L15.0967 12.1428H22.57L20.5675 7.6046C20.3859 7.19336 20.5825 6.71742 21.005 6.54172C21.425 6.36527 21.9175 6.55548 22.0991 6.96672L24.3824 12.1428H28C28.2675 12.1428 28.5191 12.2674 28.6767 12.4796C28.8325 12.6901 28.8759 12.9612 28.79 13.2081ZM33.8333 23.4761H31.3333C30.8725 23.4761 30.5 23.1135 30.5 22.6666C30.5 22.2198 30.8725 21.8571 31.3333 21.8571H33.8333C34.2941 21.8571 34.6666 22.2198 34.6666 22.6666C34.6666 23.1135 34.2941 23.4761 33.8333 23.4761ZM35.5 18.619H31.3333C30.8725 18.619 30.5 18.2563 30.5 17.8095C30.5 17.3627 30.8725 17 31.3333 17H35.5C35.9608 17 36.3333 17.3627 36.3333 17.8095C36.3333 18.2563 35.9608 18.619 35.5 18.619ZM41.3333 23.4761H37.1666C36.7058 23.4761 36.3333 23.1135 36.3333 22.6666C36.3333 22.2198 36.7058 21.8571 37.1666 21.8571H41.3333C41.7941 21.8571 42.1666 22.2198 42.1666 22.6666C42.1666 23.1135 41.7941 23.4761 41.3333 23.4761ZM41.3333 18.619H38.8333C38.3725 18.619 38 18.2563 38 17.8095C38 17.3627 38.3725 17 38.8333 17H41.3333C41.7941 17 42.1666 17.3627 42.1666 17.8095C42.1666 18.2563 41.7941 18.619 41.3333 18.619ZM41.3333 13.7619H36.3333C35.8725 13.7619 35.5 13.3992 35.5 12.9524C35.5 12.5056 35.8725 12.1429 36.3333 12.1429H41.3333C41.7941 12.1429 42.1666 12.5056 42.1666 12.9524C42.1666 13.3992 41.7941 13.7619 41.3333 13.7619ZM41.3333 8.09515H38C37.5392 8.09515 37.1667 7.73248 37.1667 7.28566C37.1667 6.83884 37.5392 6.47617 38 6.47617H41.3333C41.7941 6.47617 42.1666 6.83884 42.1666 7.28566C42.1666 7.73248 41.7941 8.09515 41.3333 8.09515Z" fill="white"/>
<path d="M23.8332 13.7623H23.8307H13.8357H13.8332H13.8315H10.8232L13.6008 21.8575H24.0657L26.8432 13.7623H23.8348H23.8332Z" fill="white"/>
</svg>
